# xmcd
#
# Track frame offsets:
#	150
#	19240
#	36694
#	50307
#	66605
#	83987
#	101051
#	117382
#	130788
#	144107
#	159773
#	178917
#	196913
#	212765
#	228669
#
# Disc length: 3267 seconds
#
# Revision: 1
# Processed by: cddbd v1.5.1PL0 Copyright (c) Steve Scherf et al.
# Submitted via: EasyCDDAExtractor 6.5.7.1
#
DISCID=da0cc10f
DTITLE=<<Vários>> - Tchê Menina - Volume 5
DYEAR=2004
DGENRE=Gaucha
TTITLE0=Tchê Garotos - Isso Só Pode Ser Festa
TTITLE1=Walther Morais - "Loco" De Bom
TTITLE2=Os Monarcas - Tranco E Balanço
TTITLE3=Tchê Campeiro - Poprquê Tu Veio
TTITLE4=Maate Quente - Maate Mania
TTITLE5=Os Serranos - Vanera Vanera
TTITLE6=Tchê Barbaridade - Tchê Barbaridade
TTITLE7=Os Mateaodores - Cutuca
TTITLE8=Os Galponeiros - Vanera De Primeira
TTITLE9=Rodeio - Escudos De Um Taura
TTITLE10=Balanço Do Tchê - Andei Falando Com As Estrelas
TTITLE11=Chiquito E Bordoneio - Frenta Á Frente
TTITLE12=Cássia Abreu - Sentimento
TTITLE13=Viração - O Som Do Bom
TTITLE14=Cezar Oliveira E Rogério Melo - Alma De Fronteira
EXTD=
EXTT0=
EXTT1=
EXTT2=
EXTT3=
EXTT4=
EXTT5=
EXTT6=
EXTT7=
EXTT8=
EXTT9=
EXTT10=
EXTT11=
EXTT12=
EXTT13=
EXTT14=
PLAYORDER=
